<?xml version="1.0" standalone="no"?>
<!DOCTYPE svg PUBLIC "-//W3C//DTD SVG 20010904//EN"
 "http://www.w3.org/TR/2001/REC-SVG-20010904/DTD/svg10.dtd">
<svg version="1.0" xmlns="http://www.w3.org/2000/svg"
 width="1050.000000pt" height="1050.000000pt" viewBox="0 0 1050.000000 1050.000000"
 preserveAspectRatio="xMidYMid meet">
<metadata>
Created by potrace 1.14, written by Peter Selinger 2001-2017
</metadata>
<g transform="translate(0.000000,1050.000000) scale(0.100000,-0.100000)"
fill="#000000" stroke="none">
<path d="M5275 9794 c-61 -22 -87 -36 -127 -72 -91 -83 -102 -208 -27 -304 23
-29 26 -39 16 -45 -41 -25 -115 -188 -131 -288 -4 -21 -8 -40 -10 -43 -2 -2
-14 7 -27 20 -93 92 -228 100 -264 15 -35 -85 53 -241 163 -288 35 -15 42 -23
37 -38 -4 -14 0 -21 15 -26 11 -3 27 -18 34 -33 8 -15 37 -58 65 -95 28 -37
51 -70 51 -72 0 -3 23 -37 52 -76 51 -70 52 -71 34 -97 -55 -86 -123 -252
-143 -349 -10 -50 -10 -53 -13 -55 -7 -9 -5 -255 3 -265 5 -7 7 -13 4 -13 -4
0 10 -66 29 -135 8 -27 12 -58 18 -140 4 -38 9 -92 11 -120 3 -27 7 -77 10
-110 10 -135 16 -211 20 -222 2 -6 -3 -14 -11 -17 -8 -3 -14 -16 -14 -28 0
-15 -35 -58 -103 -129 -127 -131 -156 -164 -229 -264 -33 -44 -66 -88 -74 -98
-9 -11 -23 -33 -33 -50 -10 -18 -36 -61 -58 -97 -22 -36 -57 -101 -78 -145
-20 -44 -44 -92 -51 -106 -7 -14 -11 -29 -7 -33 3 -3 1 -6 -5 -6 -7 0 -11 -3
-10 -7 1 -5 -11 -48 -27 -98 -16 -49 -30 -99 -32 -110 -7 -40 -12 -60 -13 -60
-1 0 -3 -13 -5 -30 -2 -16 -7 -50 -10 -75 -4 -25 -9 -67 -11 -95 -7 -81 -44
-209 -99 -340 -24 -58 -129 -279 -135 -285 -3 -3 -20 -34 -39 -70 -39 -76
-202 -349 -266 -447 -59 -90 -55 -83 -131 -198 -37 -55 -82 -122 -101 -150
-18 -27 -38 -56 -43 -62 -6 -7 -25 -34 -42 -60 -18 -27 -35 -50 -38 -53 -6 -5
-149 -203 -165 -228 -5 -9 -14 -21 -20 -27 -5 -7 -19 -24 -30 -39 -11 -16 -38
-52 -60 -81 -22 -29 -51 -67 -65 -86 -23 -31 -334 -432 -352 -454 -5 -5 -18
-22 -31 -36 -12 -15 -35 -44 -52 -64 -66 -83 -76 -93 -92 -91 -9 2 -53 -3 -97
-11 -45 -7 -94 -15 -111 -17 -67 -9 -204 -50 -271 -81 -72 -33 -130 -80 -153
-123 -13 -25 -23 -131 -13 -147 3 -5 7 -16 8 -25 4 -40 16 -85 35 -135 11 -30
20 -58 21 -62 0 -5 5 -17 11 -28 6 -11 12 -22 12 -25 1 -3 7 -17 13 -33 53
-128 77 -235 72 -327 -7 -131 -2 -187 21 -247 6 -15 11 -30 11 -33 1 -3 8 -21
16 -40 8 -19 13 -37 12 -39 -1 -2 2 -7 7 -10 4 -3 19 -26 32 -51 14 -25 41
-67 62 -95 21 -27 36 -52 33 -54 -8 -8 -1184 -7 -1184 1 0 4 5 10 10 13 6 4 8
11 5 16 -4 5 -8 48 -11 96 -3 49 -7 108 -9 133 -16 214 -18 265 -18 335 0 44
2 112 4 150 1 39 -1 93 -5 120 -4 28 -9 61 -11 75 -2 14 -7 61 -10 105 -3 44
-8 96 -11 115 -3 19 -7 67 -10 105 -3 39 -7 81 -8 95 -1 14 -15 65 -30 113
-30 95 -30 135 -2 201 13 32 14 37 1 26 -8 -7 -15 -18 -15 -26 0 -7 -3 -15 -8
-18 -6 -3 -14 178 -13 287 1 15 1 33 1 40 0 6 -2 73 -5 147 -3 83 0 148 7 169
l10 34 25 -49 c30 -60 48 -81 69 -81 32 0 53 59 57 164 1 24 5 43 8 43 3 0 22
-17 42 -37 49 -51 58 -58 92 -70 43 -15 57 3 49 64 -3 27 -10 52 -15 58 -5 5
-9 15 -9 22 0 12 7 10 90 -26 23 -10 58 -2 64 16 8 21 -27 98 -69 148 l-34 42
73 6 c75 7 119 23 124 46 4 20 -33 56 -79 76 -41 19 -51 34 -21 36 29 1 97 43
100 62 2 10 -1 24 -7 31 -14 17 -128 49 -147 42 -8 -3 -14 1 -14 9 0 8 4 15
10 15 18 0 88 102 83 121 -3 11 -8 20 -12 20 -21 5 -91 5 -91 0 0 -3 -11 -7
-25 -7 -29 -2 -32 12 -9 37 9 10 19 39 21 64 l6 45 -32 0 c-34 0 -141 -47
-141 -62 0 -4 -6 -8 -12 -8 -9 0 -13 24 -14 80 -2 79 -13 110 -39 110 -22 0
-67 -43 -82 -79 l-15 -35 -14 24 c-7 14 -13 33 -14 42 0 28 -43 70 -63 62 -35
-13 -80 -146 -71 -208 2 -16 -22 -23 -28 -7 -2 5 -32 27 -67 50 -138 89 -195
54 -119 -75 l20 -34 -27 10 c-15 6 -48 12 -75 13 -42 3 -50 1 -58 -19 -13 -27
13 -65 85 -132 26 -23 45 -42 43 -43 -3 0 -27 -2 -55 -3 -120 -7 -185 -38
-169 -80 5 -14 51 -46 74 -51 3 -1 16 -6 30 -12 l25 -10 -25 -8 c-39 -11 -97
-54 -103 -75 -8 -30 36 -51 117 -57 39 -3 72 -6 74 -7 1 -2 -9 -16 -22 -31
-41 -48 -78 -123 -74 -153 3 -24 7 -27 38 -24 36 2 80 20 92 37 16 22 18 -6 4
-53 -14 -50 -12 -91 7 -103 20 -13 70 15 126 70 l56 56 4 -45 c4 -65 5 -71 20
-115 17 -50 30 -58 58 -40 12 8 24 15 27 15 2 0 2 -25 0 -56 -3 -31 -7 -93 -9
-138 -11 -188 -14 -224 -19 -281 -20 -233 -20 -234 18 -306 19 -36 35 -75 35
-85 0 -10 2 -112 5 -227 3 -136 1 -205 -5 -201 -6 3 -8 8 -5 12 3 3 -3 20 -15
38 -11 19 -22 50 -25 71 -6 60 -9 69 -27 96 -9 15 -17 30 -17 36 0 11 -84 83
-113 96 -12 5 -24 12 -27 15 -6 7 -111 38 -155 46 -182 32 -199 33 -231 3 -16
-15 -22 -30 -19 -47 5 -32 43 -72 67 -72 10 0 18 -4 18 -10 0 -5 5 -10 11 -10
23 0 169 -115 169 -134 0 -16 89 -94 116 -100 58 -15 69 -18 79 -17 27 2 54 9
89 25 38 16 40 16 50 -1 30 -51 45 -104 45 -164 1 -37 6 -71 13 -78 7 -8 8
-11 2 -8 -7 4 -10 -35 -8 -131 8 -383 14 -580 19 -593 4 -12 -66 -14 -485 -14
-270 1 -496 -2 -502 -6 -6 -4 -8 -14 -5 -23 6 -15 112 -16 1169 -16 l1163 0
50 -48 c71 -67 151 -132 163 -132 6 0 15 -6 19 -13 11 -18 223 -121 301 -146
35 -11 89 -25 120 -31 31 -5 75 -13 97 -17 78 -15 410 -7 535 12 24 3 81 10
179 20 24 2 62 7 85 11 59 9 96 14 136 19 48 6 145 21 200 31 14 2 43 6 65 9
22 3 51 7 65 10 14 3 39 8 55 10 17 3 66 12 110 20 44 8 95 17 114 20 19 3 37
7 40 9 3 2 26 7 51 10 25 3 56 9 70 12 14 3 36 7 50 10 33 6 91 18 235 50 66
14 129 28 140 30 51 10 63 13 105 24 25 7 53 14 63 16 10 2 28 6 40 10 12 4
31 8 42 10 26 4 47 9 121 28 56 14 297 16 2482 16 1443 0 2423 4 2426 9 4 5 4
15 1 23 -5 11 -104 14 -600 13 -522 0 -595 2 -596 15 0 8 -2 26 -4 40 -2 14
-6 79 -9 145 -3 66 -8 131 -10 145 -10 51 -18 207 -16 280 4 121 2 232 -4 270
-5 36 -15 132 -21 210 -1 25 -5 70 -9 100 -3 30 -8 84 -11 120 -6 56 -23 126
-55 220 -7 20 -7 75 0 75 1 0 3 10 6 22 3 18 39 105 49 121 1 1 23 -7 49 -19
43 -19 106 -26 147 -17 28 6 73 40 104 77 50 60 125 131 140 131 7 0 15 7 19
15 3 8 10 15 16 15 6 0 35 16 65 35 60 38 69 64 39 110 -14 22 -21 23 -76 20
-33 -3 -68 -7 -77 -9 -9 -3 -36 -8 -61 -11 -146 -20 -267 -85 -321 -172 -20
-33 -52 -133 -44 -141 2 -2 -7 -25 -19 -50 -12 -26 -28 -58 -34 -72 l-11 -25
-1 30 c-14 420 -14 593 0 629 12 31 18 31 25 -3 4 -22 41 -81 60 -93 17 -12
23 -9 44 20 22 32 29 63 30 138 l1 51 54 -51 c55 -53 105 -79 126 -66 14 9 14
100 0 118 -2 1 -3 5 -4 10 -1 4 -5 13 -9 20 -11 17 -3 15 43 -8 22 -11 55 -20
75 -20 35 0 36 1 34 32 -4 37 -46 112 -85 152 l-27 26 55 0 c58 0 137 22 149
42 12 19 -20 56 -73 82 l-51 25 27 11 c15 5 31 10 36 10 12 0 70 50 70 60 0
28 -91 66 -165 69 -18 1 -18 3 5 25 71 69 91 106 70 131 -11 14 -69 14 -123 0
l-29 -8 26 51 c59 116 9 137 -131 54 -49 -29 -51 -30 -47 -9 15 61 -1 164 -25
172 -30 9 -49 -4 -83 -57 -31 -47 -33 -48 -41 -26 -8 22 -15 45 -16 60 -1 10
-43 48 -53 48 -9 0 -43 -37 -43 -48 0 -4 -4 -14 -10 -22 -5 -8 -10 -26 -12
-40 -2 -14 -7 -48 -11 -77 l-7 -52 -40 34 c-22 19 -63 46 -91 60 -104 51 -137
19 -85 -83 26 -50 26 -55 4 -44 -10 5 -39 12 -65 15 -37 5 -52 2 -70 -13 -13
-11 -17 -19 -11 -20 7 0 12 -4 10 -9 -3 -15 64 -96 101 -121 18 -13 31 -25 29
-27 -2 -2 -28 -5 -58 -8 -97 -7 -161 -29 -172 -59 -10 -25 73 -83 111 -77 25
4 11 -17 -19 -30 -41 -16 -89 -57 -89 -75 0 -31 57 -52 148 -53 l54 -1 -36
-42 c-20 -23 -36 -48 -36 -55 0 -7 -4 -13 -10 -13 -5 0 -15 -19 -22 -41 -10
-37 -10 -43 6 -54 19 -15 71 -5 118 21 28 15 28 15 18 -11 -6 -15 -13 -49 -16
-76 -6 -45 -4 -50 17 -57 16 -6 31 -4 50 7 36 22 92 72 112 101 l17 24 1 -34
c3 -90 28 -174 55 -184 9 -3 26 5 41 22 15 15 24 23 21 17 -3 -5 -9 -59 -13
-120 -13 -198 -14 -219 -20 -300 -9 -123 -16 -236 -19 -275 -2 -36 12 -74 47
-124 18 -25 21 -48 24 -190 2 -88 4 -191 6 -228 2 -53 0 -65 -10 -56 -7 6 -13
16 -13 23 0 7 -6 18 -13 24 -8 6 -14 29 -15 52 -2 44 -31 120 -56 145 -9 8
-21 23 -28 33 -15 22 -106 79 -134 84 -10 2 -26 7 -35 11 -36 16 -198 42 -254
42 -53 -1 -61 -4 -74 -28 -25 -44 -6 -76 69 -117 88 -48 148 -92 155 -114 4
-9 11 -15 16 -12 5 4 9 1 9 -5 0 -6 7 -18 15 -26 8 -8 20 -23 27 -32 15 -21
78 -66 78 -56 0 3 6 2 13 -4 17 -14 126 -7 161 12 16 8 34 12 39 9 23 -14 49
-102 52 -171 1 -40 5 -75 8 -78 3 -3 2 -16 -2 -28 -5 -11 -6 -30 -4 -41 8 -38
8 -105 0 -105 -5 0 -5 -5 -1 -11 6 -11 9 -76 16 -429 l3 -125 28 2 c15 1 27
-1 27 -5 0 -4 -425 -7 -945 -7 -520 0 -945 1 -945 2 0 3 110 56 220 106 294
134 380 175 381 184 0 4 2 18 3 30 2 13 -1 23 -6 23 -4 0 -8 8 -8 19 0 35 -31
93 -71 132 -22 21 -44 39 -49 39 -8 0 -32 43 -45 80 -1 3 -14 31 -29 63 l-26
58 20 26 20 25 -24 42 c-13 22 -51 88 -84 146 -33 58 -72 128 -87 155 -16 28
-36 64 -45 80 -78 136 -233 411 -260 460 -18 33 -59 105 -90 160 -70 121 -89
155 -136 242 -20 37 -44 79 -53 93 -50 75 -71 129 -66 166 2 22 7 66 10 99 3
33 7 70 9 82 3 12 7 53 11 90 3 37 8 86 11 108 3 22 7 63 9 90 2 28 5 50 5 50
1 0 3 16 5 36 3 34 9 97 21 199 5 47 23 101 35 110 8 5 101 198 98 202 -1 2 6
21 16 43 20 46 65 181 71 210 2 11 7 34 11 50 4 17 7 32 8 35 2 11 18 116 21
145 5 40 4 213 0 250 -8 64 -18 112 -33 165 -9 30 -14 55 -12 56 2 0 -2 8 -9
16 -7 9 -14 29 -16 46 -4 26 -1 31 24 35 27 6 27 8 24 64 -3 71 -15 350 -19
454 -1 42 -5 81 -9 87 -3 6 -2 13 4 17 6 4 7 12 3 18 -8 13 -12 227 -5 241 2
4 6 31 8 60 1 28 5 77 8 109 3 31 8 83 11 115 12 125 15 149 20 192 3 25 8 72
10 105 2 33 5 60 6 60 0 0 3 23 5 50 2 28 7 64 10 80 3 17 7 44 9 60 12 106
15 137 21 195 7 78 7 349 -1 405 -12 91 -23 160 -25 160 -1 0 -3 7 -5 15 -2 8
-6 26 -9 40 -16 76 -101 259 -139 301 -12 13 -37 53 -56 89 -18 36 -42 81 -52
100 -10 19 -23 48 -28 63 -9 23 -14 26 -30 18 -15 -9 -22 -6 -36 15 -15 23
-15 27 -1 43 9 10 16 21 16 25 0 4 6 14 13 21 27 31 37 45 37 50 0 3 19 40 42
83 24 42 43 79 43 82 1 3 8 21 17 40 63 131 71 224 25 293 -9 15 -17 30 -17
34 0 5 -8 16 -17 24 -10 9 -25 25 -34 35 -27 32 -84 80 -130 110 -24 15 -48
33 -54 39 -20 21 -91 58 -145 75 -112 33 -300 22 -407 -26 -21 -10 -41 -17
-44 -16 -4 1 -35 -26 -69 -58 -35 -33 -60 -60 -55 -60 4 0 3 -6 -2 -12 -16
-20 -37 -90 -39 -128 -1 -37 18 -77 48 -98 10 -7 15 -19 11 -25 -11 -17 -11
-135 0 -186 26 -128 129 -262 242 -316 32 -15 66 -28 74 -30 13 -2 16 -20 17
-113 l0 -111 -32 -16 c-18 -8 -41 -15 -52 -15 -50 0 -160 -126 -165 -189 -1
-12 -4 -21 -8 -21 -3 0 -5 -14 -3 -31 l4 -31 -88 6 c-48 4 -96 9 -107 11 -11
2 -24 4 -30 4 -5 1 -23 12 -39 26 -16 14 -32 25 -35 25 -3 0 -20 13 -38 28
-17 15 -55 45 -84 67 -28 22 -60 48 -71 58 -10 9 -22 17 -27 17 -6 0 -16 8
-23 18 -7 10 -21 21 -31 25 -29 11 -17 41 18 45 45 5 134 32 141 43 3 5 10 7
15 4 5 -4 9 -2 9 4 0 5 9 12 19 16 32 10 107 89 139 146 37 67 53 125 56 206
2 36 9 69 17 79 9 11 14 40 14 79 0 57 -3 64 -36 100 -30 31 -35 43 -30 64 18
62 -24 182 -73 214 -40 26 -109 36 -230 33 -67 -1 -113 0 -103 2 21 4 22 36 1
93 -9 24 -17 49 -18 54 -12 49 -70 135 -91 135 -5 0 -17 7 -27 17 -24 21 -157
26 -213 7z m685 -2139 c-7 -9 -15 -13 -17 -11 -7 7 7 26 19 26 6 0 6 -6 -2
-15z m-1 -608 c-12 -30 -19 -67 -17 -89 4 -42 -10 -36 -18 8 -3 15 -10 34 -16
41 -6 7 -8 13 -5 13 3 0 0 15 -8 34 -16 38 -17 37 57 43 l27 2 -20 -52z m-59
-706 c92 -124 90 -119 95 -206 3 -33 7 -87 9 -120 3 -33 7 -96 10 -140 l4 -80
-15 45 c-8 25 -17 52 -20 60 -3 8 -8 24 -10 35 -1 11 -7 29 -12 40 -10 20 -51
145 -55 168 -2 7 -6 19 -9 27 -3 8 -11 33 -17 55 -6 22 -14 47 -17 55 -4 8 -7
17 -8 20 0 3 -7 23 -14 45 -14 45 -17 56 -21 70 -1 6 -7 21 -12 35 -12 32 -9
28 92 -109z m1250 -4262 c54 -79 103 -149 107 -154 4 -6 37 -53 73 -105 35
-52 68 -96 72 -98 4 -2 8 -9 8 -16 0 -7 9 -21 20 -31 11 -10 20 -24 20 -32 0
-17 19 -17 26 1 3 8 12 17 19 20 19 7 11 -11 -47 -112 -26 -46 -48 -88 -48
-93 0 -5 -5 -9 -12 -9 -6 0 -9 -3 -5 -6 6 -7 -39 -84 -57 -97 -30 -20 -93 -58
-111 -66 -11 -5 -35 -22 -53 -39 -29 -27 -31 -33 -22 -58 6 -15 9 -32 7 -38
-4 -9 -302 -14 -419 -7 -14 1 -16 8 -12 49 4 26 7 58 8 72 2 27 -28 120 -43
129 -5 3 -9 17 -9 31 0 21 13 33 80 70 107 60 107 60 165 103 64 47 127 119
154 175 21 46 25 145 8 236 -4 23 -10 60 -13 83 -3 22 -8 52 -10 65 -10 43
-15 80 -10 76 3 -3 49 -70 104 -149z m-6100 -939 c0 -4 -7 -7 -15 -6 -23 3
-26 12 -5 13 11 1 20 -2 20 -7z m4830 2 c0 -5 -7 -9 -15 -9 -8 0 -15 4 -15 9
0 4 7 8 15 8 8 0 15 -4 15 -8z"/>
<path d="M1529 3266 c-2 -2 -29 -6 -59 -10 -192 -19 -313 -73 -390 -172 -22
-29 -41 -74 -35 -85 4 -5 2 -9 -2 -9 -5 0 -10 -16 -11 -36 -2 -20 -9 -49 -18
-65 -8 -16 -10 -29 -5 -29 5 0 12 9 16 19 6 20 7 20 53 0 106 -47 186 -23 268
78 48 60 50 62 99 98 44 33 72 50 127 77 50 25 67 82 33 117 -12 12 -68 25
-76 17z"/>
</g>
</svg>
